<?xml version="1.0" encoding="utf-8"?>
<!-- Generator: Adobe Illustrator 24.1.1, SVG Export Plug-In . SVG Version: 6.00 Build 0)  -->
<svg version="1.1" id="Layer_1" xmlns="http://www.w3.org/2000/svg" xmlns:xlink="http://www.w3.org/1999/xlink" x="0px" y="0px"
	 viewBox="0 0 110 42" style="enable-background:new 0 0 110 42;" xml:space="preserve">
<style type="text/css">
	.st0{fill:url(#SVGID_1_);}
	.st1{fill:#999999;}
	.st2{fill:#6BAD01;}
	.st3{fill:#FFB000;}
	.st4{fill:#FFAA00;}
</style>
<g>
	
		<linearGradient id="SVGID_1_" gradientUnits="userSpaceOnUse" x1="34.5488" y1="945.9568" x2="49.3558" y2="937.1174" gradientTransform="matrix(1 0 0 1 0 -928)">
		<stop  offset="0.4053" style="stop-color:#6BAD01"/>
		<stop  offset="1" style="stop-color:#99D300"/>
	</linearGradient>
	<path class="st0" d="M43.68,8.12c0,0-6.79,10.26-7.11,14.55c0,0,6.51,0.6,8.25-7.71c1.68-8.31,1.19-7.6,1.68-10.15
		c0,0-6.3,1.36-10.69,6.13s-1.79,10.91-1.79,10.91s1.03-3.37,3.91-6.79c0,0-3.8,6.62-3.42,9.5c0,0-4.51-5.54-1.9-11.51
		c2.61-5.81,11.18-10.1,16.18-10.86c0.16,0,0.33,0.16,0.27,0.33c-0.38,1.14-1.3,4.83-1.47,6.51c-0.11,1.68-0.65,5.75-2.17,9.39
		c-1.52,3.64-5.97,6.73-10.8,5.7C34.67,24.14,38.58,12.68,43.68,8.12z"/>
	<g>
		<path class="st1" d="M0.31,28.48c0-3.64,2.82-6.3,6.68-6.3s6.68,2.66,6.68,6.3s-2.88,6.3-6.68,6.3
			C3.13,34.77,0.31,32.11,0.31,28.48z M10.78,28.48c0-2.33-1.63-3.91-3.8-3.91s-3.8,1.57-3.8,3.91s1.63,3.91,3.8,3.91
			S10.78,30.81,10.78,28.48z"/>
		<path class="st1" d="M25.17,29.24v5.37h-2.71v-4.94c0-1.52-0.71-2.23-1.9-2.23c-1.3,0-2.23,0.81-2.23,2.55v4.61h-2.71v-9.39h2.61
			v1.09c0.71-0.81,1.85-1.25,3.09-1.25C23.49,25.06,25.17,26.36,25.17,29.24z"/>
		<path class="st1" d="M27.61,21.69h2.71v12.92h-2.71V21.69z"/>
		<path class="st1" d="M32.82,25.22h2.71v9.39h-2.71V25.22z"/>
		<path class="st1" d="M47.64,29.24v5.37h-2.71v-4.94c0-1.52-0.71-2.23-1.9-2.23c-1.3,0-2.23,0.81-2.23,2.55v4.61h-2.71v-9.39h2.61
			v1.09c0.71-0.81,1.85-1.25,3.09-1.25C46.01,25.06,47.64,26.36,47.64,29.24z"/>
		<path class="st1" d="M59.37,30.65h-7.11c0.27,1.14,1.25,1.9,2.66,1.9c0.98,0,1.68-0.27,2.33-0.92l1.47,1.57
			c-0.87,0.98-2.17,1.52-3.85,1.52c-3.26,0-5.32-2.06-5.32-4.83c0-2.82,2.12-4.83,4.99-4.83c2.77,0,4.89,1.85,4.89,4.83
			C59.37,30.16,59.37,30.43,59.37,30.65z M52.2,29.08h4.61c-0.22-1.19-1.09-1.95-2.28-1.95C53.29,27.12,52.42,27.88,52.2,29.08z"/>
	</g>
	<g>
		<path class="st2" d="M67.18,32.66h-4.07l-0.76,1.9h-2.06l3.91-8.79h2.01l3.96,8.79h-2.12L67.18,32.66z M66.53,31.08l-1.41-3.37
			l-1.41,3.37H66.53z"/>
		<path class="st2" d="M77.77,27.77v5.65c0,2.5-1.36,3.69-3.8,3.69c-1.3,0-2.55-0.33-3.31-0.92l0.76-1.41
			c0.6,0.49,1.52,0.76,2.39,0.76c1.41,0,2.01-0.65,2.01-1.85v-0.27c-0.54,0.54-1.25,0.87-2.12,0.87c-1.9,0-3.37-1.3-3.37-3.26
			c0-1.95,1.52-3.26,3.37-3.26c0.92,0,1.74,0.33,2.23,0.98v-0.87L77.77,27.77L77.77,27.77z M75.87,30.92c0-0.98-0.76-1.68-1.79-1.68
			c-1.03,0-1.79,0.65-1.79,1.68c0,0.98,0.76,1.68,1.79,1.68S75.87,31.95,75.87,30.92z"/>
		<path class="st2" d="M83.79,27.66v1.79c-0.16,0-0.27,0-0.43,0c-1.09,0-1.79,0.6-1.79,1.9v3.2h-1.95v-6.79h1.9v0.87
			C81.95,27.99,82.76,27.66,83.79,27.66z"/>
		<path class="st2" d="M84.45,31.14c0-2.06,1.57-3.47,3.75-3.47c2.17,0,3.69,1.47,3.69,3.47c0,2.06-1.57,3.47-3.69,3.47
			C86.02,34.67,84.45,33.2,84.45,31.14z M89.87,31.14c0-1.19-0.76-1.9-1.74-1.9c-0.98,0-1.74,0.71-1.74,1.9s0.76,1.9,1.74,1.9
			C89.11,33.04,89.87,32.33,89.87,31.14z"/>
	</g>
	<g>
		<path class="st3" d="M92.15,33.47c0-0.38,0.33-0.65,0.71-0.65c0.38,0,0.71,0.27,0.71,0.65c0,0.38-0.33,0.71-0.71,0.71
			C92.48,34.18,92.15,33.91,92.15,33.47z"/>
		<path class="st3" d="M93.94,32.22c0-1.14,0.87-1.95,2.12-1.95c0.81,0,1.41,0.33,1.68,0.98l-0.87,0.43
			c-0.22-0.38-0.49-0.54-0.87-0.54c-0.54,0-0.98,0.38-0.98,1.03c0,0.65,0.43,1.03,0.98,1.03c0.33,0,0.65-0.16,0.87-0.54l0.87,0.49
			c-0.27,0.6-0.92,0.98-1.68,0.98C94.81,34.18,93.94,33.36,93.94,32.22z"/>
		<path class="st3" d="M98.02,32.22c0-1.14,0.87-1.95,2.06-1.95s2.06,0.81,2.06,1.95c0,1.14-0.87,1.95-2.06,1.95
			S98.02,33.36,98.02,32.22z M101.11,32.22c0-0.65-0.43-1.03-0.98-1.03c-0.54,0-0.98,0.38-0.98,1.03s0.43,1.03,0.98,1.03
			C100.68,33.25,101.11,32.87,101.11,32.22z"/>
		<path class="st3" d="M109.31,31.95v2.17h-1.09v-2.01c0-0.6-0.27-0.87-0.71-0.87c-0.49,0-0.81,0.33-0.81,0.98v1.9h-1.09v-2.01
			c0-0.6-0.27-0.87-0.71-0.87c-0.49,0-0.81,0.33-0.81,0.98v1.9h-1.09v-3.8h1.03v0.43c0.27-0.33,0.71-0.49,1.19-0.49
			c0.54,0,0.98,0.22,1.25,0.6c0.33-0.38,0.81-0.6,1.36-0.6C108.66,30.27,109.31,30.81,109.31,31.95z"/>
	</g>
	<g>
		<path class="st4" d="M58.44,37.87c0.22,0.11,0.38,0.33,0.54,0.54c0.11,0.22,0.16,0.49,0.16,0.76s-0.05,0.54-0.16,0.76
			s-0.33,0.38-0.54,0.54c-0.22,0.11-0.49,0.22-0.76,0.22c-0.27,0-0.54-0.05-0.76-0.22c-0.22-0.11-0.38-0.33-0.54-0.54
			c-0.11-0.22-0.22-0.49-0.22-0.76s0.05-0.54,0.22-0.76c0.11-0.22,0.33-0.38,0.54-0.54c0.22-0.11,0.49-0.22,0.76-0.22
			C58.01,37.71,58.23,37.76,58.44,37.87z M57.2,38.25c-0.16,0.11-0.27,0.22-0.33,0.38c-0.05,0.16-0.11,0.33-0.11,0.54
			s0.05,0.38,0.11,0.54c0.05,0.16,0.22,0.27,0.33,0.38c0.16,0.11,0.33,0.11,0.49,0.11c0.16,0,0.33-0.05,0.49-0.11
			c0.16-0.11,0.27-0.22,0.33-0.38c0.05-0.16,0.11-0.33,0.11-0.54s-0.05-0.38-0.11-0.54c-0.05-0.16-0.22-0.27-0.33-0.38
			c-0.11-0.11-0.33-0.11-0.49-0.11C57.52,38.14,57.36,38.14,57.2,38.25z"/>
		<path class="st4" d="M62.41,40.64h-0.49l-1.41-2.17v2.17h-0.49v-2.93h0.49l1.41,2.17v-2.17h0.49V40.64z"/>
		<path class="st4" d="M63.87,38.09v0.87h1.09v0.38h-1.09v0.92h1.19v0.38h-1.68v-2.93h1.68v0.38L63.87,38.09L63.87,38.09z"/>
		<path class="st4" d="M69.19,40.26c-0.05,0.11-0.16,0.22-0.33,0.27c-0.16,0.05-0.33,0.11-0.54,0.11s-0.38-0.05-0.54-0.11
			s-0.27-0.16-0.38-0.27c-0.11-0.11-0.16-0.27-0.16-0.43h0.49c0,0.11,0.05,0.22,0.16,0.33c0.11,0.11,0.22,0.16,0.38,0.16
			c0.16,0,0.27-0.05,0.33-0.11c0.05-0.05,0.11-0.16,0.11-0.33c0-0.11-0.05-0.22-0.11-0.27s-0.11-0.11-0.22-0.16
			s-0.22-0.05-0.38-0.11s-0.33-0.11-0.43-0.16c-0.11-0.05-0.22-0.16-0.27-0.27c-0.05-0.11-0.11-0.27-0.11-0.43
			c0-0.16,0.05-0.27,0.11-0.43c0.05-0.11,0.16-0.22,0.33-0.27c0.16-0.05,0.33-0.11,0.49-0.11c0.33,0,0.54,0.05,0.71,0.22
			c0.16,0.16,0.27,0.33,0.33,0.54H68.7c0-0.11-0.05-0.22-0.16-0.27c-0.11-0.05-0.22-0.11-0.33-0.11s-0.22,0.05-0.33,0.11
			c-0.05,0.05-0.11,0.16-0.11,0.27c0,0.11,0,0.16,0.05,0.27c0.05,0.05,0.11,0.11,0.22,0.16c0.11,0.05,0.22,0.05,0.33,0.11
			c0.16,0.05,0.33,0.11,0.43,0.16c0.11,0.05,0.22,0.16,0.33,0.27c0.05,0.11,0.11,0.27,0.11,0.43C69.3,40.04,69.25,40.15,69.19,40.26
			z"/>
		<path class="st4" d="M72.07,37.71v0.38h-0.81v2.55h-0.49v-2.55h-0.81v-0.38H72.07z"/>
		<path class="st4" d="M74.89,37.87c0.22,0.11,0.38,0.33,0.54,0.54c0.11,0.22,0.16,0.49,0.16,0.76s-0.05,0.54-0.16,0.76
			c-0.11,0.22-0.33,0.38-0.54,0.54c-0.22,0.11-0.49,0.22-0.76,0.22s-0.54-0.05-0.76-0.22c-0.22-0.11-0.38-0.33-0.54-0.54
			s-0.22-0.49-0.22-0.76s0.05-0.54,0.22-0.76s0.33-0.38,0.54-0.54c0.22-0.11,0.49-0.22,0.76-0.22
			C74.46,37.71,74.67,37.76,74.89,37.87z M73.7,38.25c-0.16,0.11-0.27,0.22-0.33,0.38c-0.05,0.16-0.11,0.33-0.11,0.54
			s0.05,0.38,0.11,0.54c0.05,0.16,0.22,0.27,0.33,0.38c0.11,0.11,0.33,0.11,0.49,0.11c0.16,0,0.33-0.05,0.49-0.11
			c0.16-0.11,0.27-0.22,0.33-0.38c0.05-0.16,0.11-0.33,0.11-0.54s-0.05-0.38-0.11-0.54c-0.05-0.16-0.22-0.27-0.33-0.38
			c-0.11-0.11-0.33-0.11-0.49-0.11C73.97,38.14,73.81,38.14,73.7,38.25z"/>
		<path class="st4" d="M77.01,39.5v1.14h-0.49v-2.93h0.98c0.33,0,0.6,0.05,0.76,0.22c0.16,0.16,0.27,0.38,0.27,0.65
			c0,0.27-0.11,0.49-0.27,0.65s-0.43,0.22-0.76,0.22h-0.49V39.5z M78.04,38.63c0-0.16-0.05-0.27-0.16-0.38
			c-0.11-0.11-0.22-0.11-0.43-0.11h-0.49v0.98h0.49C77.88,39.12,78.04,38.95,78.04,38.63z"/>
		<path class="st4" d="M82.49,40.04h-1.25l-0.22,0.65h-0.49l1.09-2.88h0.54l1.09,2.88h-0.49L82.49,40.04z M82.38,39.66l-0.49-1.36
			l-0.49,1.36H82.38z"/>
		<path class="st4" d="M86.18,37.92c0.22,0.16,0.38,0.38,0.49,0.71h-0.49c-0.05-0.16-0.16-0.27-0.33-0.38
			c-0.16-0.11-0.33-0.16-0.54-0.16c-0.16,0-0.33,0.05-0.49,0.11s-0.27,0.22-0.33,0.38c-0.05,0.16-0.11,0.33-0.11,0.54
			s0.05,0.43,0.11,0.6c0.05,0.16,0.22,0.27,0.33,0.38c0.16,0.11,0.33,0.11,0.54,0.11c0.22,0,0.43-0.05,0.65-0.22
			c0.16-0.16,0.27-0.38,0.33-0.6h-1.09v-0.33h1.47v0.43c-0.05,0.22-0.11,0.43-0.22,0.6c-0.11,0.16-0.27,0.33-0.49,0.43
			c-0.22,0.11-0.43,0.16-0.71,0.16s-0.54-0.05-0.76-0.22c-0.22-0.11-0.38-0.33-0.49-0.54c-0.11-0.22-0.16-0.49-0.16-0.76
			s0.05-0.54,0.16-0.76c0.11-0.22,0.27-0.38,0.49-0.54c0.22-0.11,0.49-0.16,0.76-0.16C85.69,37.71,85.97,37.76,86.18,37.92z"/>
		<path class="st4" d="M89.17,40.64l-0.71-1.19h-0.33v1.19h-0.49v-2.93h1.03c0.33,0,0.6,0.05,0.76,0.22
			c0.16,0.16,0.27,0.38,0.27,0.65c0,0.22-0.05,0.43-0.22,0.54c-0.16,0.11-0.33,0.22-0.54,0.27l0.76,1.19h-0.54V40.64z M88.08,39.12
			h0.54c0.38,0,0.6-0.16,0.6-0.49c0-0.16-0.05-0.27-0.16-0.38c-0.11-0.11-0.22-0.16-0.43-0.16h-0.54V39.12L88.08,39.12z"/>
		<path class="st4" d="M92.59,37.87c0.22,0.11,0.38,0.33,0.54,0.54c0.11,0.22,0.16,0.49,0.16,0.76s-0.05,0.54-0.16,0.76
			c-0.11,0.22-0.33,0.38-0.54,0.54c-0.22,0.11-0.49,0.22-0.76,0.22s-0.54-0.05-0.76-0.22c-0.22-0.11-0.38-0.33-0.54-0.54
			s-0.22-0.49-0.22-0.76s0.05-0.54,0.22-0.76s0.33-0.38,0.54-0.54c0.22-0.11,0.49-0.22,0.76-0.22
			C92.15,37.71,92.37,37.76,92.59,37.87z M91.39,38.25c-0.16,0.11-0.27,0.22-0.33,0.38c-0.05,0.16-0.11,0.33-0.11,0.54
			s0.05,0.38,0.11,0.54s0.22,0.27,0.33,0.38c0.16,0.11,0.33,0.11,0.49,0.11c0.16,0,0.33-0.05,0.49-0.11
			c0.16-0.11,0.27-0.22,0.33-0.38c0.05-0.16,0.11-0.33,0.11-0.54s-0.05-0.38-0.11-0.54c-0.05-0.16-0.22-0.27-0.33-0.38
			c-0.11-0.11-0.33-0.11-0.49-0.11C91.66,38.14,91.5,38.14,91.39,38.25z"/>
		<path class="st4" d="M97.42,40.26c-0.05,0.11-0.16,0.22-0.33,0.27s-0.33,0.11-0.54,0.11c-0.22,0-0.38-0.05-0.54-0.11
			s-0.27-0.16-0.38-0.27c-0.11-0.11-0.16-0.27-0.16-0.43h0.49c0,0.11,0.05,0.22,0.16,0.33c0.11,0.11,0.22,0.16,0.38,0.16
			s0.27-0.05,0.33-0.11c0.05-0.05,0.11-0.16,0.11-0.33c0-0.11-0.05-0.22-0.11-0.27c-0.05-0.05-0.11-0.11-0.22-0.16
			c-0.11-0.05-0.22-0.05-0.38-0.11s-0.33-0.11-0.43-0.16c-0.11-0.05-0.22-0.16-0.27-0.27c-0.05-0.11-0.11-0.27-0.11-0.43
			c0-0.16,0.05-0.27,0.11-0.43c0.05-0.11,0.16-0.22,0.33-0.27c0.16-0.05,0.33-0.11,0.49-0.11c0.33,0,0.54,0.05,0.71,0.22
			c0.16,0.16,0.27,0.33,0.33,0.54h-0.43c0-0.11-0.05-0.22-0.16-0.27c-0.11-0.05-0.22-0.11-0.33-0.11s-0.22,0.05-0.33,0.11
			c-0.05,0.05-0.11,0.16-0.11,0.27c0,0.11,0,0.16,0.05,0.27c0.05,0.05,0.11,0.11,0.22,0.16c0.11,0.05,0.22,0.05,0.33,0.11
			c0.16,0.05,0.33,0.11,0.43,0.16c0.11,0.05,0.22,0.16,0.33,0.27c0.05,0.11,0.11,0.27,0.11,0.43
			C97.53,40.04,97.47,40.15,97.42,40.26z"/>
		<path class="st4" d="M100.3,37.71v0.38h-0.81v2.55h-0.49v-2.55h-0.81v-0.38H100.3z"/>
		<path class="st4" d="M103.17,37.87c0.22,0.11,0.38,0.33,0.54,0.54c0.11,0.22,0.16,0.49,0.16,0.76s-0.05,0.54-0.16,0.76
			c-0.11,0.22-0.33,0.38-0.54,0.54c-0.22,0.11-0.49,0.22-0.76,0.22c-0.27,0-0.54-0.05-0.76-0.22c-0.22-0.11-0.38-0.33-0.54-0.54
			s-0.22-0.49-0.22-0.76s0.05-0.54,0.22-0.76s0.33-0.38,0.54-0.54c0.22-0.11,0.49-0.22,0.76-0.22
			C102.68,37.71,102.96,37.76,103.17,37.87z M101.92,38.25c-0.16,0.11-0.27,0.22-0.33,0.38c-0.05,0.16-0.11,0.33-0.11,0.54
			s0.05,0.38,0.11,0.54c0.05,0.16,0.22,0.27,0.33,0.38c0.11,0.11,0.33,0.11,0.49,0.11c0.16,0,0.33-0.05,0.49-0.11
			c0.16-0.11,0.27-0.22,0.33-0.38c0.05-0.16,0.11-0.33,0.11-0.54s-0.05-0.38-0.11-0.54c-0.05-0.16-0.22-0.27-0.33-0.38
			c-0.11-0.11-0.33-0.11-0.49-0.11C102.25,38.14,102.09,38.14,101.92,38.25z"/>
		<path class="st4" d="M106.32,40.64l-0.71-1.19h-0.33v1.19h-0.49v-2.93h1.03c0.33,0,0.6,0.05,0.76,0.22
			c0.16,0.16,0.27,0.38,0.27,0.65c0,0.22-0.05,0.43-0.22,0.54c-0.16,0.11-0.33,0.22-0.54,0.27l0.76,1.19h-0.54V40.64z M105.24,39.12
			h0.54c0.38,0,0.6-0.16,0.6-0.49c0-0.16-0.05-0.27-0.16-0.38c-0.11-0.11-0.22-0.16-0.43-0.16h-0.54V39.12L105.24,39.12z"/>
		<path class="st4" d="M108.11,38.09v0.87h1.09v0.38h-1.09v0.92h1.19v0.38h-1.68v-2.93h1.68v0.38L108.11,38.09L108.11,38.09z"/>
	</g>
</g>
<g>
</g>
<g>
</g>
<g>
</g>
<g>
</g>
<g>
</g>
<g>
</g>
<g>
</g>
<g>
</g>
<g>
</g>
<g>
</g>
<g>
</g>
<g>
</g>
<g>
</g>
<g>
</g>
<g>
</g>
</svg>
