<?xml version="1.0" encoding="utf-8"?>
<!-- Generator: Adobe Illustrator 24.1.1, SVG Export Plug-In . SVG Version: 6.00 Build 0)  -->
<svg version="1.1" id="Layer_1" xmlns="http://www.w3.org/2000/svg" xmlns:xlink="http://www.w3.org/1999/xlink" x="0px" y="0px"
	 viewBox="0 0 205.1 72.6" style="enable-background:new 0 0 205.1 72.6;" xml:space="preserve">
<style type="text/css">
	.st0{fill:url(#SVGID_1_);}
	.st1{fill:#999999;}
	.st2{fill:#6BAD01;}
	.st3{fill:#FFB000;}
	.st4{fill:#FFAA00;}
</style>
<g>
	
		<linearGradient id="SVGID_1_" gradientUnits="userSpaceOnUse" x1="65.0923" y1="66.9627" x2="92.3698" y2="83.2466" gradientTransform="matrix(1 0 0 -1 0 96)">
		<stop  offset="0.4053" style="stop-color:#6BAD01"/>
		<stop  offset="1" style="stop-color:#99D300"/>
	</linearGradient>
	<path class="st0" d="M81.9,10.9c0,0-12.5,18.9-13.1,26.8c0,0,12,1.1,15.2-14.2c3.1-15.3,2.2-14,3.1-18.7c0,0-11.6,2.5-19.7,11.3
		s-3.3,20.1-3.3,20.1S66,30,71.3,23.7c0,0-7,12.2-6.3,17.5c0,0-8.3-10.2-3.5-21.2C66.3,9.3,82.1,1.4,91.3,0c0.3,0,0.6,0.3,0.5,0.6
		c-0.7,2.1-2.4,8.9-2.7,12c-0.2,3.1-1.2,10.6-4,17.3c-2.8,6.7-11,12.4-19.9,10.5C65.3,40.4,72.5,19.3,81.9,10.9z"/>
	<g>
		<path class="st1" d="M2,48.4c0-6.7,5.2-11.6,12.3-11.6c7.1,0,12.3,4.9,12.3,11.6S21.3,60,14.3,60C7.2,60,2,55.1,2,48.4z
			 M21.3,48.4c0-4.3-3-7.2-7-7.2s-7,2.9-7,7.2s3,7.2,7,7.2S21.3,52.7,21.3,48.4z"/>
		<path class="st1" d="M47.8,49.8v9.9h-5v-9.1c0-2.8-1.3-4.1-3.5-4.1c-2.4,0-4.1,1.5-4.1,4.7v8.5h-5V42.4h4.8v2
			c1.3-1.5,3.4-2.3,5.7-2.3C44.7,42.1,47.8,44.5,47.8,49.8z"/>
		<path class="st1" d="M52.3,35.9h5v23.8h-5V35.9z"/>
		<path class="st1" d="M61.9,42.4h5v17.3h-5V42.4z"/>
		<path class="st1" d="M89.2,49.8v9.9h-5v-9.1c0-2.8-1.3-4.1-3.5-4.1c-2.4,0-4.1,1.5-4.1,4.7v8.5h-5V42.4h4.8v2
			c1.3-1.5,3.4-2.3,5.7-2.3C86.2,42.1,89.2,44.5,89.2,49.8z"/>
		<path class="st1" d="M110.8,52.4H97.7c0.5,2.1,2.3,3.5,4.9,3.5c1.8,0,3.1-0.5,4.3-1.7l2.7,2.9c-1.6,1.8-4,2.8-7.1,2.8
			c-6,0-9.8-3.8-9.8-8.9c0-5.2,3.9-8.9,9.2-8.9c5.1,0,9,3.4,9,8.9C110.8,51.5,110.8,52,110.8,52.4z M97.6,49.5h8.5
			c-0.4-2.2-2-3.6-4.2-3.6C99.6,45.9,98,47.3,97.6,49.5z"/>
	</g>
	<g>
		<path class="st2" d="M125.2,56.1h-7.5l-1.4,3.5h-3.8l7.2-16.2h3.7l7.3,16.2h-3.9L125.2,56.1z M124,53.2l-2.6-6.2l-2.6,6.2H124z"/>
		<path class="st2" d="M144.7,47.1v10.4c0,4.6-2.5,6.8-7,6.8c-2.4,0-4.7-0.6-6.1-1.7l1.4-2.6c1.1,0.9,2.8,1.4,4.4,1.4
			c2.6,0,3.7-1.2,3.7-3.4v-0.5c-1,1-2.3,1.6-3.9,1.6c-3.5,0-6.2-2.4-6.2-6c0-3.6,2.8-6,6.2-6c1.7,0,3.2,0.6,4.1,1.8v-1.6L144.7,47.1
			L144.7,47.1z M141.2,52.9c0-1.8-1.4-3.1-3.3-3.1c-1.9,0-3.3,1.2-3.3,3.1c0,1.8,1.4,3.1,3.3,3.1S141.2,54.8,141.2,52.9z"/>
		<path class="st2" d="M155.8,46.9v3.3c-0.3,0-0.5,0-0.8,0c-2,0-3.3,1.1-3.3,3.5v5.9h-3.6V47.1h3.5v1.6
			C152.4,47.5,153.9,46.9,155.8,46.9z"/>
		<path class="st2" d="M157,53.3c0-3.8,2.9-6.4,6.9-6.4s6.8,2.7,6.8,6.4c0,3.8-2.9,6.4-6.8,6.4C159.9,59.8,157,57.1,157,53.3z
			 M167,53.3c0-2.2-1.4-3.5-3.2-3.5s-3.2,1.3-3.2,3.5c0,2.2,1.4,3.5,3.2,3.5S167,55.5,167,53.3z"/>
	</g>
	<g>
		<path class="st3" d="M171.2,57.6c0-0.7,0.6-1.2,1.3-1.2s1.3,0.5,1.3,1.2c0,0.7-0.6,1.3-1.3,1.3C171.8,58.9,171.2,58.4,171.2,57.6z
			"/>
		<path class="st3" d="M174.5,55.3c0-2.1,1.6-3.6,3.9-3.6c1.5,0,2.6,0.6,3.1,1.8l-1.6,0.8c-0.4-0.7-0.9-1-1.6-1
			c-1,0-1.8,0.7-1.8,1.9c0,1.2,0.8,1.9,1.8,1.9c0.6,0,1.2-0.3,1.6-1l1.6,0.9c-0.5,1.1-1.7,1.8-3.1,1.8
			C176.1,58.9,174.5,57.4,174.5,55.3z"/>
		<path class="st3" d="M182,55.3c0-2.1,1.6-3.6,3.8-3.6c2.2,0,3.8,1.5,3.8,3.6c0,2.1-1.6,3.6-3.8,3.6S182,57.4,182,55.3z
			 M187.7,55.3c0-1.2-0.8-1.9-1.8-1.9s-1.8,0.7-1.8,1.9c0,1.2,0.8,1.9,1.8,1.9S187.7,56.5,187.7,55.3z"/>
		<path class="st3" d="M202.8,54.8v4h-2v-3.7c0-1.1-0.5-1.6-1.3-1.6c-0.9,0-1.5,0.6-1.5,1.8v3.5h-2v-3.7c0-1.1-0.5-1.6-1.3-1.6
			c-0.9,0-1.5,0.6-1.5,1.8v3.5h-2v-7h1.9v0.8c0.5-0.6,1.3-0.9,2.2-0.9c1,0,1.8,0.4,2.3,1.1c0.6-0.7,1.5-1.1,2.5-1.1
			C201.6,51.7,202.8,52.7,202.8,54.8z"/>
	</g>
	<g>
		<path class="st4" d="M109.1,65.7c0.4,0.2,0.7,0.6,1,1c0.2,0.4,0.3,0.9,0.3,1.4s-0.1,1-0.3,1.4c-0.2,0.4-0.6,0.7-1,1
			c-0.4,0.2-0.9,0.4-1.4,0.4c-0.5,0-1-0.1-1.4-0.4c-0.4-0.2-0.7-0.6-1-1c-0.2-0.4-0.4-0.9-0.4-1.4s0.1-1,0.4-1.4
			c0.2-0.4,0.6-0.7,1-1c0.4-0.2,0.9-0.4,1.4-0.4C108.3,65.4,108.7,65.5,109.1,65.7z M106.8,66.4c-0.3,0.2-0.5,0.4-0.6,0.7
			c-0.1,0.3-0.2,0.6-0.2,1s0.1,0.7,0.2,1c0.1,0.3,0.4,0.5,0.6,0.7c0.3,0.2,0.6,0.2,0.9,0.2c0.3,0,0.6-0.1,0.9-0.2
			c0.3-0.2,0.5-0.4,0.6-0.7c0.1-0.3,0.2-0.6,0.2-1s-0.1-0.7-0.2-1c-0.1-0.3-0.4-0.5-0.6-0.7s-0.6-0.2-0.9-0.2
			C107.4,66.2,107.1,66.2,106.8,66.4z"/>
		<path class="st4" d="M116.4,70.8h-0.9l-2.6-4v4h-0.9v-5.4h0.9l2.6,4v-4h0.9V70.8z"/>
		<path class="st4" d="M119.1,66.1v1.6h2v0.7h-2v1.7h2.2v0.7h-3.1v-5.4h3.1v0.7H119.1z"/>
		<path class="st4" d="M128.9,70.1c-0.1,0.2-0.3,0.4-0.6,0.5c-0.3,0.1-0.6,0.2-1,0.2c-0.4,0-0.7-0.1-1-0.2c-0.3-0.1-0.5-0.3-0.7-0.5
			c-0.2-0.2-0.3-0.5-0.3-0.8h0.9c0,0.2,0.1,0.4,0.3,0.6c0.2,0.2,0.4,0.3,0.7,0.3c0.3,0,0.5-0.1,0.6-0.2s0.2-0.3,0.2-0.6
			c0-0.2-0.1-0.4-0.2-0.5c-0.1-0.1-0.2-0.2-0.4-0.3c-0.2-0.1-0.4-0.1-0.7-0.2c-0.3-0.1-0.6-0.2-0.8-0.3c-0.2-0.1-0.4-0.3-0.5-0.5
			c-0.1-0.2-0.2-0.5-0.2-0.8c0-0.3,0.1-0.5,0.2-0.8c0.1-0.2,0.3-0.4,0.6-0.5c0.3-0.1,0.6-0.2,0.9-0.2c0.6,0,1,0.1,1.3,0.4
			c0.3,0.3,0.5,0.6,0.6,1H128c0-0.2-0.1-0.4-0.3-0.5s-0.4-0.2-0.6-0.2c-0.2,0-0.4,0.1-0.6,0.2c-0.1,0.1-0.2,0.3-0.2,0.5
			c0,0.2,0,0.3,0.1,0.5c0.1,0.1,0.2,0.2,0.4,0.3c0.2,0.1,0.4,0.1,0.6,0.2c0.3,0.1,0.6,0.2,0.8,0.3c0.2,0.1,0.4,0.3,0.6,0.5
			c0.1,0.2,0.2,0.5,0.2,0.8C129.1,69.7,129,69.9,128.9,70.1z"/>
		<path class="st4" d="M134.2,65.4v0.7h-1.5v4.7h-0.9v-4.7h-1.5v-0.7H134.2z"/>
		<path class="st4" d="M139.4,65.7c0.4,0.2,0.7,0.6,1,1c0.2,0.4,0.3,0.9,0.3,1.4s-0.1,1-0.3,1.4c-0.2,0.4-0.6,0.7-1,1
			c-0.4,0.2-0.9,0.4-1.4,0.4c-0.5,0-1-0.1-1.4-0.4c-0.4-0.2-0.7-0.6-1-1s-0.4-0.9-0.4-1.4s0.1-1,0.4-1.4s0.6-0.7,1-1
			c0.4-0.2,0.9-0.4,1.4-0.4C138.6,65.4,139,65.5,139.4,65.7z M137.2,66.4c-0.3,0.2-0.5,0.4-0.6,0.7c-0.1,0.3-0.2,0.6-0.2,1
			s0.1,0.7,0.2,1c0.1,0.3,0.4,0.5,0.6,0.7s0.6,0.2,0.9,0.2c0.3,0,0.6-0.1,0.9-0.2c0.3-0.2,0.5-0.4,0.6-0.7c0.1-0.3,0.2-0.6,0.2-1
			s-0.1-0.7-0.2-1c-0.1-0.3-0.4-0.5-0.6-0.7s-0.6-0.2-0.9-0.2C137.7,66.2,137.4,66.2,137.2,66.4z"/>
		<path class="st4" d="M143.3,68.7v2.1h-0.9v-5.4h1.8c0.6,0,1.1,0.1,1.4,0.4c0.3,0.3,0.5,0.7,0.5,1.2c0,0.5-0.2,0.9-0.5,1.2
			c-0.3,0.3-0.8,0.4-1.4,0.4H143.3z M145.2,67.1c0-0.3-0.1-0.5-0.3-0.7c-0.2-0.2-0.4-0.2-0.8-0.2h-0.9V68h0.9
			C144.9,68,145.2,67.7,145.2,67.1z"/>
		<path class="st4" d="M153.4,69.7h-2.3l-0.4,1.2h-0.9l2-5.3h1l2,5.3h-0.9L153.4,69.7z M153.2,69l-0.9-2.5l-0.9,2.5H153.2z"/>
		<path class="st4" d="M160.2,65.8c0.4,0.3,0.7,0.7,0.9,1.3h-0.9c-0.1-0.3-0.3-0.5-0.6-0.7c-0.3-0.2-0.6-0.3-1-0.3
			c-0.3,0-0.6,0.1-0.9,0.2s-0.5,0.4-0.6,0.7c-0.1,0.3-0.2,0.6-0.2,1c0,0.4,0.1,0.8,0.2,1.1c0.1,0.3,0.4,0.5,0.6,0.7
			c0.3,0.2,0.6,0.2,1,0.2c0.4,0,0.8-0.1,1.2-0.4c0.3-0.3,0.5-0.7,0.6-1.1h-2v-0.6h2.7v0.8c-0.1,0.4-0.2,0.8-0.4,1.1
			c-0.2,0.3-0.5,0.6-0.9,0.8c-0.4,0.2-0.8,0.3-1.3,0.3c-0.5,0-1-0.1-1.4-0.4c-0.4-0.2-0.7-0.6-0.9-1s-0.3-0.9-0.3-1.4
			c0-0.5,0.1-1,0.3-1.4s0.5-0.7,0.9-1c0.4-0.2,0.9-0.3,1.4-0.3C159.3,65.4,159.8,65.5,160.2,65.8z"/>
		<path class="st4" d="M165.7,70.8l-1.3-2.2h-0.6v2.2h-0.9v-5.4h1.9c0.6,0,1.1,0.1,1.4,0.4c0.3,0.3,0.5,0.7,0.5,1.2
			c0,0.4-0.1,0.8-0.4,1s-0.6,0.4-1,0.5l1.4,2.2H165.7z M163.7,68h1c0.7,0,1.1-0.3,1.1-0.9c0-0.3-0.1-0.5-0.3-0.7
			c-0.2-0.2-0.4-0.3-0.8-0.3h-1L163.7,68L163.7,68z"/>
		<path class="st4" d="M172,65.7c0.4,0.2,0.7,0.6,1,1c0.2,0.4,0.3,0.9,0.3,1.4s-0.1,1-0.3,1.4c-0.2,0.4-0.6,0.7-1,1
			c-0.4,0.2-0.9,0.4-1.4,0.4c-0.5,0-1-0.1-1.4-0.4c-0.4-0.2-0.7-0.6-1-1s-0.4-0.9-0.4-1.4s0.1-1,0.4-1.4s0.6-0.7,1-1
			c0.4-0.2,0.9-0.4,1.4-0.4C171.2,65.4,171.6,65.5,172,65.7z M169.8,66.4c-0.3,0.2-0.5,0.4-0.6,0.7c-0.1,0.3-0.2,0.6-0.2,1
			s0.1,0.7,0.2,1c0.1,0.3,0.4,0.5,0.6,0.7c0.3,0.2,0.6,0.2,0.9,0.2c0.3,0,0.6-0.1,0.9-0.2c0.3-0.2,0.5-0.4,0.6-0.7
			c0.1-0.3,0.2-0.6,0.2-1s-0.1-0.7-0.2-1c-0.1-0.3-0.4-0.5-0.6-0.7s-0.6-0.2-0.9-0.2C170.3,66.2,170,66.2,169.8,66.4z"/>
		<path class="st4" d="M180.9,70.1c-0.1,0.2-0.3,0.4-0.6,0.5c-0.3,0.1-0.6,0.2-1,0.2s-0.7-0.1-1-0.2c-0.3-0.1-0.5-0.3-0.7-0.5
			c-0.2-0.2-0.3-0.5-0.3-0.8h0.9c0,0.2,0.1,0.4,0.3,0.6s0.4,0.3,0.7,0.3c0.3,0,0.5-0.1,0.6-0.2c0.1-0.1,0.2-0.3,0.2-0.6
			c0-0.2-0.1-0.4-0.2-0.5c-0.1-0.1-0.2-0.2-0.4-0.3c-0.2-0.1-0.4-0.1-0.7-0.2c-0.3-0.1-0.6-0.2-0.8-0.3c-0.2-0.1-0.4-0.3-0.5-0.5
			c-0.1-0.2-0.2-0.5-0.2-0.8c0-0.3,0.1-0.5,0.2-0.8c0.1-0.2,0.3-0.4,0.6-0.5c0.3-0.1,0.6-0.2,0.9-0.2c0.6,0,1,0.1,1.3,0.4
			c0.3,0.3,0.5,0.6,0.6,1H180c0-0.2-0.1-0.4-0.3-0.5s-0.4-0.2-0.6-0.2c-0.2,0-0.4,0.1-0.6,0.2c-0.1,0.1-0.2,0.3-0.2,0.5
			c0,0.2,0,0.3,0.1,0.5c0.1,0.1,0.2,0.2,0.4,0.3c0.2,0.1,0.4,0.1,0.6,0.2c0.3,0.1,0.6,0.2,0.8,0.3c0.2,0.1,0.4,0.3,0.6,0.5
			c0.1,0.2,0.2,0.5,0.2,0.8C181.1,69.7,181,69.9,180.9,70.1z"/>
		<path class="st4" d="M186.2,65.4v0.7h-1.5v4.7h-0.9v-4.7h-1.5v-0.7H186.2z"/>
		<path class="st4" d="M191.5,65.7c0.4,0.2,0.7,0.6,1,1c0.2,0.4,0.3,0.9,0.3,1.4s-0.1,1-0.3,1.4c-0.2,0.4-0.6,0.7-1,1
			c-0.4,0.2-0.9,0.4-1.4,0.4c-0.5,0-1-0.1-1.4-0.4c-0.4-0.2-0.7-0.6-1-1s-0.4-0.9-0.4-1.4s0.1-1,0.4-1.4s0.6-0.7,1-1
			c0.4-0.2,0.9-0.4,1.4-0.4C190.6,65.4,191.1,65.5,191.5,65.7z M189.2,66.4c-0.3,0.2-0.5,0.4-0.6,0.7c-0.1,0.3-0.2,0.6-0.2,1
			s0.1,0.7,0.2,1c0.1,0.3,0.4,0.5,0.6,0.7s0.6,0.2,0.9,0.2c0.3,0,0.6-0.1,0.9-0.2c0.3-0.2,0.5-0.4,0.6-0.7c0.1-0.3,0.2-0.6,0.2-1
			s-0.1-0.7-0.2-1c-0.1-0.3-0.4-0.5-0.6-0.7s-0.6-0.2-0.9-0.2C189.8,66.2,189.5,66.2,189.2,66.4z"/>
		<path class="st4" d="M197.3,70.8l-1.3-2.2h-0.6v2.2h-0.9v-5.4h1.9c0.6,0,1.1,0.1,1.4,0.4c0.3,0.3,0.5,0.7,0.5,1.2
			c0,0.4-0.1,0.8-0.4,1s-0.6,0.4-1,0.5l1.4,2.2H197.3z M195.3,68h1c0.7,0,1.1-0.3,1.1-0.9c0-0.3-0.1-0.5-0.3-0.7
			c-0.2-0.2-0.4-0.3-0.8-0.3h-1L195.3,68L195.3,68z"/>
		<path class="st4" d="M200.6,66.1v1.6h2v0.7h-2v1.7h2.2v0.7h-3.1v-5.4h3.1v0.7H200.6z"/>
	</g>
</g>
</svg>
