<?xml version="1.0" encoding="utf-8"?>
<!-- Generator: Adobe Illustrator 24.1.1, SVG Export Plug-In . SVG Version: 6.00 Build 0)  -->
<svg version="1.1" id="Layer_1" xmlns="http://www.w3.org/2000/svg" xmlns:xlink="http://www.w3.org/1999/xlink" x="0px" y="0px"
	 viewBox="0 0 634.83 236.05" style="enable-background:new 0 0 634.83 236.05;" xml:space="preserve">
<style type="text/css">
	.st0{fill:url(#SVGID_1_);}
	.st1{fill:#999999;}
	.st2{fill:#6BAD01;}
	.st3{fill:#FFB000;}
	.st4{fill:#FFAA00;}
	.st5{fill:url(#SVGID_2_);}
	.st6{fill:#FFFFFF;}
</style>
<g>
	<linearGradient id="SVGID_1_" gradientUnits="userSpaceOnUse" x1="202.0796" y1="97.316" x2="285.9897" y2="47.2239">
		<stop  offset="0.4053" style="stop-color:#6BAD01"/>
		<stop  offset="1" style="stop-color:#99D300"/>
	</linearGradient>
	<path class="st0" d="M253.79,41.43c0,0-38.51,58.14-40.36,82.58c0,0,37.03,3.33,46.66-43.7c9.63-47.03,6.67-42.96,9.63-57.4
		c0,0-35.55,7.78-60.73,34.81s-10,61.84-10,61.84s5.95-19.17,22.22-38.51c0,0-21.48,37.4-19.26,53.69c0,0-25.55-31.48-10.74-65.17
		c14.44-32.86,63.05-57.27,91.55-61.55c0.99-0.15,1.79,0.8,1.49,1.75c-2.04,6.56-7.51,27.28-8.24,36.84
		c-0.74,9.63-3.7,32.59-12.22,53.32c-8.52,20.74-33.7,38.14-61.1,32.22C202.69,132.15,224.91,67.35,253.79,41.43z"/>
	<g>
		<path class="st1" d="M8,157c0-20.52,15.98-35.72,37.79-35.72c21.71,0,37.79,15.1,37.79,35.72c0,20.62-16.08,35.72-37.79,35.72
			C23.98,192.72,8,177.53,8,157z M67.4,157c0-13.12-9.27-22.1-21.61-22.1c-12.33,0-21.61,8.98-21.61,22.1s9.27,22.1,21.61,22.1
			C58.12,179.1,67.4,170.13,67.4,157z"/>
		<path class="st1" d="M148.79,161.15v30.39H133.4v-28.02c0-8.58-3.95-12.53-10.75-12.53c-7.4,0-12.73,4.54-12.73,14.31v26.24H94.52
			v-53.08h14.7v6.22c4.14-4.54,10.36-7,17.56-7C139.32,137.67,148.79,144.97,148.79,161.15z"/>
		<path class="st1" d="M162.69,118.33h15.39v73.21h-15.39V118.33z"/>
		<path class="st1" d="M192.39,138.46h15.39v53.08h-15.39V138.46z"/>
		<path class="st1" d="M276.35,161.15v30.39h-15.39v-28.02c0-8.58-3.95-12.53-10.75-12.53c-7.4,0-12.73,4.54-12.73,14.31v26.24
			h-15.39v-53.08h14.7v6.22c4.14-4.54,10.36-7,17.56-7C266.88,137.67,276.35,144.97,276.35,161.15z"/>
		<path class="st1" d="M342.55,169.34h-40.16c1.48,6.61,7.1,10.66,15.19,10.66c5.62,0,9.67-1.68,13.32-5.13l8.19,8.88
			c-4.93,5.62-12.33,8.58-21.9,8.58c-18.35,0-30.29-11.54-30.29-27.33c0-15.88,12.14-27.33,28.32-27.33
			c15.59,0,27.63,10.46,27.63,27.53C342.84,166.38,342.65,168.06,342.55,169.34z M302.2,160.36h26.15
			c-1.08-6.71-6.12-11.05-13.02-11.05C308.31,149.31,303.28,153.55,302.2,160.36z"/>
	</g>
	<g>
		<path class="st2" d="M386.92,180.55h-23.17l-4.42,10.7h-11.84l22.25-49.91h11.41l22.32,49.91h-12.12L386.92,180.55z
			 M383.28,171.78l-7.92-19.11l-7.92,19.11H383.28z"/>
		<path class="st2" d="M447.09,152.88v31.94c0,14.26-7.7,20.82-21.53,20.82c-7.27,0-14.33-1.78-18.82-5.28l4.42-7.99
			c3.28,2.64,8.63,4.35,13.55,4.35c7.84,0,11.27-3.57,11.27-10.48v-1.64c-2.92,3.21-7.13,4.78-12.12,4.78
			c-10.63,0-19.18-7.34-19.18-18.54c0-11.2,8.56-18.54,19.18-18.54c5.35,0,9.77,1.78,12.69,5.49v-4.92H447.09z M436.11,170.85
			c0-5.63-4.21-9.41-10.05-9.41s-10.13,3.78-10.13,9.41c0,5.63,4.28,9.41,10.13,9.41S436.11,176.48,436.11,170.85z"/>
		<path class="st2" d="M481.25,152.31v10.27c-0.93-0.07-1.64-0.14-2.5-0.14c-6.13,0-10.2,3.35-10.2,10.7v18.11h-11.12v-38.36h10.62
			v5.06C470.76,154.24,475.33,152.31,481.25,152.31z"/>
		<path class="st2" d="M484.67,172.06c0-11.55,8.91-19.75,21.11-19.75s21.04,8.2,21.04,19.75c0,11.55-8.84,19.75-21.04,19.75
			S484.67,183.61,484.67,172.06z M515.54,172.06c0-6.63-4.21-10.63-9.77-10.63s-9.84,3.99-9.84,10.63c0,6.63,4.28,10.62,9.84,10.62
			S515.54,178.69,515.54,172.06z"/>
	</g>
	<g>
		<path class="st3" d="M528.52,185.32c0-2.31,1.71-3.82,3.86-3.82s3.87,1.51,3.87,3.82c0,2.27-1.71,3.9-3.87,3.9
			S528.52,187.59,528.52,185.32z"/>
		<path class="st3" d="M538.6,178.18c0-6.45,4.98-11.04,11.95-11.04c4.5,0,8.05,1.95,9.6,5.46l-4.82,2.59
			c-1.16-2.03-2.87-2.95-4.82-2.95c-3.15,0-5.62,2.19-5.62,5.94s2.47,5.94,5.62,5.94c1.95,0,3.67-0.88,4.82-2.95l4.82,2.63
			c-1.55,3.43-5.1,5.42-9.6,5.42C543.58,189.22,538.6,184.64,538.6,178.18z"/>
		<path class="st3" d="M561.87,178.18c0-6.45,4.98-11.04,11.79-11.04c6.81,0,11.75,4.58,11.75,11.04s-4.94,11.04-11.75,11.04
			C566.85,189.22,561.87,184.64,561.87,178.18z M579.12,178.18c0-3.71-2.35-5.94-5.46-5.94c-3.11,0-5.5,2.23-5.5,5.94
			s2.39,5.94,5.5,5.94C576.77,184.12,579.12,181.89,579.12,178.18z"/>
		<path class="st3" d="M625.77,176.63v12.27h-6.22v-11.31c0-3.47-1.55-5.06-4.06-5.06c-2.79,0-4.74,1.79-4.74,5.62v10.76h-6.21
			v-11.31c0-3.47-1.47-5.06-4.06-5.06c-2.75,0-4.7,1.79-4.7,5.62v10.76h-6.22v-21.43h5.94v2.47c1.59-1.83,3.98-2.79,6.73-2.79
			c2.99,0,5.54,1.16,7.05,3.51c1.71-2.19,4.5-3.51,7.73-3.51C622.11,167.15,625.77,170.1,625.77,176.63z"/>
	</g>
	<g>
		<path class="st4" d="M337.49,210.12c1.25,0.72,2.23,1.73,2.94,3.02s1.07,2.76,1.07,4.39c0,1.63-0.36,3.09-1.07,4.39
			c-0.71,1.29-1.69,2.31-2.94,3.03c-1.25,0.73-2.64,1.09-4.18,1.09c-1.55,0-2.95-0.37-4.2-1.09c-1.25-0.73-2.23-1.74-2.95-3.03
			c-0.72-1.29-1.08-2.76-1.08-4.39c0-1.63,0.36-3.09,1.08-4.39c0.72-1.29,1.71-2.3,2.95-3.02c1.25-0.72,2.65-1.08,4.2-1.08
			C334.85,209.04,336.25,209.4,337.49,210.12z M330.47,212.26c-0.83,0.49-1.48,1.18-1.94,2.09c-0.46,0.91-0.69,1.97-0.69,3.18
			c0,1.21,0.23,2.27,0.69,3.18c0.46,0.91,1.11,1.61,1.94,2.09s1.78,0.73,2.85,0.73c1.05,0,1.99-0.24,2.81-0.73
			c0.82-0.49,1.47-1.18,1.93-2.09c0.46-0.91,0.69-1.97,0.69-3.18c0-1.21-0.23-2.27-0.69-3.18c-0.46-0.91-1.11-1.61-1.93-2.09
			c-0.82-0.49-1.76-0.73-2.81-0.73C332.25,211.53,331.3,211.78,330.47,212.26z"/>
		<path class="st4" d="M360,225.86h-2.68l-8.07-12.26v12.26h-2.68v-16.59h2.68l8.07,12.3v-12.3H360V225.86z"/>
		<path class="st4" d="M368.28,211.41v5.04h6.12v2.07h-6.12v5.15h6.82v2.19h-9.51v-16.61h9.51v2.16H368.28z"/>
		<path class="st4" d="M398.25,223.71c-0.39,0.7-0.99,1.26-1.79,1.68s-1.78,0.64-2.94,0.64c-1.13,0-2.14-0.2-3.04-0.6
			c-0.89-0.4-1.61-0.96-2.14-1.68s-0.84-1.55-0.92-2.49h2.87c0.08,0.72,0.39,1.34,0.93,1.86s1.27,0.78,2.18,0.78
			c0.82,0,1.45-0.22,1.89-0.66c0.45-0.44,0.67-1,0.67-1.69c0-0.6-0.17-1.09-0.49-1.47c-0.33-0.38-0.74-0.69-1.22-0.91
			s-1.15-0.47-2-0.75c-1.04-0.33-1.88-0.66-2.53-0.99c-0.65-0.33-1.2-0.81-1.66-1.44c-0.46-0.63-0.68-1.45-0.68-2.47
			c0-0.89,0.22-1.68,0.66-2.35c0.44-0.67,1.07-1.2,1.88-1.56c0.82-0.37,1.76-0.55,2.82-0.55c1.69,0,3.04,0.41,4.04,1.22
			s1.56,1.88,1.71,3.2h-2.89c-0.11-0.63-0.4-1.16-0.88-1.61s-1.13-0.67-1.96-0.67c-0.75,0-1.36,0.19-1.81,0.58
			c-0.46,0.38-0.68,0.94-0.68,1.66c0,0.56,0.16,1.03,0.47,1.4s0.71,0.66,1.19,0.87s1.13,0.46,1.96,0.74c1.05,0.33,1.91,0.66,2.58,1
			c0.67,0.34,1.23,0.83,1.69,1.47c0.46,0.64,0.69,1.49,0.69,2.54C398.84,222.25,398.64,223.01,398.25,223.71z"/>
		<path class="st4" d="M414.56,209.25v2.16h-4.63v14.45h-2.71v-14.45h-4.61v-2.16H414.56z"/>
		<path class="st4" d="M430.78,210.12c1.25,0.72,2.23,1.73,2.94,3.02s1.07,2.76,1.07,4.39c0,1.63-0.36,3.09-1.07,4.39
			c-0.71,1.29-1.69,2.31-2.94,3.03c-1.25,0.73-2.64,1.09-4.18,1.09c-1.55,0-2.95-0.37-4.2-1.09c-1.25-0.73-2.23-1.74-2.95-3.03
			c-0.72-1.29-1.08-2.76-1.08-4.39c0-1.63,0.36-3.09,1.08-4.39c0.72-1.29,1.71-2.3,2.95-3.02c1.25-0.72,2.65-1.08,4.2-1.08
			C428.14,209.04,429.53,209.4,430.78,210.12z M423.75,212.26c-0.83,0.49-1.48,1.18-1.94,2.09c-0.46,0.91-0.69,1.97-0.69,3.18
			c0,1.21,0.23,2.27,0.69,3.18c0.46,0.91,1.11,1.61,1.94,2.09s1.78,0.73,2.85,0.73c1.05,0,1.99-0.24,2.81-0.73
			c0.82-0.49,1.47-1.18,1.93-2.09c0.46-0.91,0.69-1.97,0.69-3.18c0-1.21-0.23-2.27-0.69-3.18c-0.46-0.91-1.11-1.61-1.93-2.09
			c-0.82-0.49-1.76-0.73-2.81-0.73C425.53,211.53,424.58,211.78,423.75,212.26z"/>
		<path class="st4" d="M442.53,219.41v6.45h-2.68v-16.61h5.65c1.91,0,3.35,0.46,4.32,1.36c0.96,0.91,1.45,2.16,1.45,3.74
			c0,1.57-0.49,2.8-1.48,3.71c-0.99,0.9-2.42,1.35-4.28,1.35H442.53z M448.53,214.36c0-0.94-0.26-1.66-0.79-2.15
			c-0.53-0.49-1.37-0.74-2.53-0.74h-2.68v5.76h2.68C447.42,217.23,448.53,216.27,448.53,214.36z"/>
		<path class="st4" d="M473.73,222.26h-7.01l-1.27,3.6h-2.87l6.12-16.35h3.08l6.09,16.35H475L473.73,222.26z M472.97,220.19
			l-2.75-7.76l-2.75,7.76H472.97z"/>
		<path class="st4" d="M494.76,210.57c1.32,0.97,2.19,2.3,2.61,3.98h-2.82c-0.36-0.89-0.95-1.61-1.78-2.14
			c-0.82-0.53-1.8-0.8-2.93-0.8c-1.04,0-1.96,0.24-2.79,0.73c-0.82,0.49-1.47,1.18-1.93,2.07c-0.46,0.89-0.69,1.95-0.69,3.15
			c0,1.27,0.24,2.36,0.71,3.27c0.47,0.91,1.13,1.6,1.99,2.08c0.85,0.48,1.85,0.72,2.98,0.72c1.38,0,2.56-0.43,3.55-1.28
			c0.99-0.85,1.58-2.03,1.79-3.52h-6.09v-1.98h8.35v2.56c-0.19,1.22-0.62,2.33-1.31,3.33s-1.58,1.79-2.71,2.39
			c-1.12,0.6-2.4,0.89-3.85,0.89c-1.62,0-3.04-0.36-4.28-1.08c-1.24-0.72-2.2-1.72-2.87-3s-1.01-2.74-1.01-4.39
			c0-1.65,0.34-3.11,1.01-4.39c0.67-1.28,1.63-2.27,2.86-2.99s2.66-1.07,4.27-1.07C491.8,209.11,493.44,209.6,494.76,210.57z"/>
		<path class="st4" d="M511.49,225.86l-4.14-6.63h-1.91v6.63h-2.68v-16.61h5.86c1.9,0,3.34,0.46,4.32,1.39
			c0.98,0.93,1.47,2.15,1.47,3.67c0,1.3-0.36,2.37-1.09,3.2c-0.73,0.83-1.79,1.37-3.17,1.6l4.35,6.75H511.49z M505.44,217.32h2.96
			c2.17,0,3.25-0.96,3.25-2.87c0-0.91-0.26-1.62-0.79-2.13s-1.34-0.76-2.46-0.76h-2.96V217.32z"/>
		<path class="st4" d="M531.05,210.12c1.25,0.72,2.23,1.73,2.94,3.02s1.07,2.76,1.07,4.39c0,1.63-0.36,3.09-1.07,4.39
			c-0.71,1.29-1.69,2.31-2.94,3.03c-1.25,0.73-2.64,1.09-4.18,1.09c-1.55,0-2.95-0.37-4.2-1.09c-1.25-0.73-2.23-1.74-2.95-3.03
			c-0.72-1.29-1.08-2.76-1.08-4.39c0-1.63,0.36-3.09,1.08-4.39c0.72-1.29,1.71-2.3,2.95-3.02c1.25-0.72,2.65-1.08,4.2-1.08
			C528.41,209.04,529.8,209.4,531.05,210.12z M524.03,212.26c-0.83,0.49-1.48,1.18-1.94,2.09c-0.46,0.91-0.69,1.97-0.69,3.18
			c0,1.21,0.23,2.27,0.69,3.18c0.46,0.91,1.11,1.61,1.94,2.09s1.78,0.73,2.85,0.73c1.05,0,1.99-0.24,2.81-0.73
			c0.82-0.49,1.47-1.18,1.93-2.09c0.46-0.91,0.69-1.97,0.69-3.18c0-1.21-0.23-2.27-0.69-3.18c-0.46-0.91-1.11-1.61-1.93-2.09
			c-0.82-0.49-1.76-0.73-2.81-0.73C525.81,211.53,524.86,211.78,524.03,212.26z"/>
		<path class="st4" d="M558.31,223.71c-0.39,0.7-0.99,1.26-1.79,1.68s-1.78,0.64-2.94,0.64c-1.13,0-2.14-0.2-3.04-0.6
			c-0.89-0.4-1.61-0.96-2.14-1.68s-0.84-1.55-0.92-2.49h2.87c0.08,0.72,0.39,1.34,0.93,1.86s1.27,0.78,2.18,0.78
			c0.82,0,1.45-0.22,1.89-0.66c0.45-0.44,0.67-1,0.67-1.69c0-0.6-0.17-1.09-0.49-1.47c-0.33-0.38-0.74-0.69-1.22-0.91
			s-1.15-0.47-2-0.75c-1.04-0.33-1.88-0.66-2.53-0.99c-0.65-0.33-1.2-0.81-1.66-1.44c-0.46-0.63-0.68-1.45-0.68-2.47
			c0-0.89,0.22-1.68,0.66-2.35c0.44-0.67,1.07-1.2,1.88-1.56c0.82-0.37,1.76-0.55,2.82-0.55c1.69,0,3.04,0.41,4.04,1.22
			s1.56,1.88,1.71,3.2h-2.89c-0.11-0.63-0.4-1.16-0.88-1.61s-1.13-0.67-1.96-0.67c-0.75,0-1.36,0.19-1.81,0.58
			c-0.46,0.38-0.68,0.94-0.68,1.66c0,0.56,0.16,1.03,0.47,1.4s0.71,0.66,1.19,0.87s1.13,0.46,1.96,0.74c1.05,0.33,1.91,0.66,2.58,1
			c0.67,0.34,1.23,0.83,1.69,1.47c0.46,0.64,0.69,1.49,0.69,2.54C558.9,222.25,558.7,223.01,558.31,223.71z"/>
		<path class="st4" d="M574.61,209.25v2.16h-4.63v14.45h-2.71v-14.45h-4.61v-2.16H574.61z"/>
		<path class="st4" d="M590.83,210.12c1.25,0.72,2.23,1.73,2.94,3.02s1.07,2.76,1.07,4.39c0,1.63-0.36,3.09-1.07,4.39
			c-0.71,1.29-1.69,2.31-2.94,3.03c-1.25,0.73-2.64,1.09-4.18,1.09c-1.55,0-2.95-0.37-4.2-1.09c-1.25-0.73-2.23-1.74-2.95-3.03
			c-0.72-1.29-1.08-2.76-1.08-4.39c0-1.63,0.36-3.09,1.08-4.39c0.72-1.29,1.71-2.3,2.95-3.02c1.25-0.72,2.65-1.08,4.2-1.08
			C588.19,209.04,589.59,209.4,590.83,210.12z M583.81,212.26c-0.83,0.49-1.48,1.18-1.94,2.09c-0.46,0.91-0.69,1.97-0.69,3.18
			c0,1.21,0.23,2.27,0.69,3.18c0.46,0.91,1.11,1.61,1.94,2.09s1.78,0.73,2.85,0.73c1.05,0,1.99-0.24,2.81-0.73
			c0.82-0.49,1.47-1.18,1.93-2.09c0.46-0.91,0.69-1.97,0.69-3.18c0-1.21-0.23-2.27-0.69-3.18c-0.46-0.91-1.11-1.61-1.93-2.09
			c-0.82-0.49-1.76-0.73-2.81-0.73C585.59,211.53,584.64,211.78,583.81,212.26z"/>
		<path class="st4" d="M608.63,225.86l-4.14-6.63h-1.91v6.63h-2.68v-16.61h5.86c1.9,0,3.34,0.46,4.32,1.39
			c0.98,0.93,1.47,2.15,1.47,3.67c0,1.3-0.36,2.37-1.09,3.2c-0.73,0.83-1.79,1.37-3.17,1.6l4.35,6.75H608.63z M602.59,217.32h2.96
			c2.17,0,3.25-0.96,3.25-2.87c0-0.91-0.26-1.62-0.79-2.13s-1.34-0.76-2.46-0.76h-2.96V217.32z"/>
		<path class="st4" d="M619.01,211.41v5.04h6.12v2.07h-6.12v5.15h6.82v2.19h-9.51v-16.61h9.51v2.16H619.01z"/>
	</g>
</g>
<linearGradient id="SVGID_2_" gradientUnits="userSpaceOnUse" x1="152.6041" y1="446.8995" x2="236.5143" y2="396.8075">
	<stop  offset="0.4053" style="stop-color:#6BAD01"/>
	<stop  offset="1" style="stop-color:#99D300"/>
</linearGradient>
<path class="st5" d="M204.32,391.01c0,0-38.51,58.14-40.36,82.58c0,0,37.03,3.33,46.66-43.7c9.63-47.03,6.67-42.96,9.63-57.4
	c0,0-35.55,7.78-60.73,34.81s-10,61.84-10,61.84s5.95-19.17,22.22-38.51c0,0-21.48,37.4-19.26,53.69c0,0-25.55-31.48-10.74-65.17
	c14.44-32.86,63.05-57.27,91.55-61.55c0.99-0.15,1.79,0.8,1.49,1.75c-2.04,6.56-7.51,27.28-8.24,36.84
	c-0.74,9.63-3.7,32.59-12.22,53.32c-8.52,20.74-33.7,38.14-61.1,32.22C153.21,481.73,175.43,416.93,204.32,391.01z"/>
<g>
	<path class="st4" d="M53.04,697.13c1.25,0.72,2.23,1.73,2.94,3.02s1.07,2.76,1.07,4.39c0,1.63-0.36,3.09-1.07,4.39
		c-0.71,1.29-1.69,2.31-2.94,3.03c-1.25,0.73-2.64,1.09-4.18,1.09c-1.55,0-2.95-0.37-4.2-1.09c-1.25-0.73-2.23-1.74-2.95-3.03
		c-0.72-1.29-1.08-2.76-1.08-4.39c0-1.63,0.36-3.09,1.08-4.39c0.72-1.29,1.71-2.3,2.95-3.02c1.25-0.72,2.65-1.08,4.2-1.08
		C50.4,696.05,51.79,696.41,53.04,697.13z M46.01,699.27c-0.83,0.49-1.48,1.18-1.94,2.09c-0.46,0.91-0.69,1.97-0.69,3.18
		c0,1.21,0.23,2.27,0.69,3.18c0.46,0.91,1.11,1.61,1.94,2.09s1.78,0.73,2.85,0.73c1.05,0,1.99-0.24,2.81-0.73
		c0.82-0.49,1.47-1.18,1.93-2.09c0.46-0.91,0.69-1.97,0.69-3.18c0-1.21-0.23-2.27-0.69-3.18c-0.46-0.91-1.11-1.61-1.93-2.09
		c-0.82-0.49-1.76-0.73-2.81-0.73C47.79,698.54,46.84,698.79,46.01,699.27z"/>
	<path class="st4" d="M75.54,712.87h-2.68l-8.07-12.26v12.26H62.1v-16.59h2.68l8.07,12.3v-12.3h2.68V712.87z"/>
	<path class="st4" d="M83.82,698.43v5.04h6.12v2.07h-6.12v5.15h6.82v2.19h-9.51v-16.61h9.51v2.16H83.82z"/>
	<path class="st4" d="M113.79,710.72c-0.39,0.7-0.99,1.26-1.79,1.68s-1.78,0.64-2.94,0.64c-1.13,0-2.14-0.2-3.04-0.6
		c-0.89-0.4-1.61-0.96-2.14-1.68s-0.84-1.55-0.92-2.49h2.87c0.08,0.72,0.39,1.34,0.93,1.86s1.27,0.78,2.18,0.78
		c0.82,0,1.45-0.22,1.89-0.66c0.45-0.44,0.67-1,0.67-1.69c0-0.6-0.17-1.09-0.49-1.47c-0.33-0.38-0.74-0.69-1.22-0.91
		s-1.15-0.47-2-0.75c-1.04-0.33-1.88-0.66-2.53-0.99c-0.65-0.33-1.2-0.81-1.66-1.44c-0.46-0.63-0.68-1.45-0.68-2.47
		c0-0.89,0.22-1.68,0.66-2.35c0.44-0.67,1.07-1.2,1.88-1.56c0.82-0.37,1.76-0.55,2.82-0.55c1.69,0,3.04,0.41,4.04,1.22
		s1.56,1.88,1.71,3.2h-2.89c-0.11-0.63-0.4-1.16-0.88-1.61s-1.13-0.67-1.96-0.67c-0.75,0-1.36,0.19-1.81,0.58
		c-0.46,0.38-0.68,0.94-0.68,1.66c0,0.56,0.16,1.03,0.47,1.4s0.71,0.66,1.19,0.87s1.13,0.46,1.96,0.74c1.05,0.33,1.91,0.66,2.58,1
		c0.67,0.34,1.23,0.83,1.69,1.47c0.46,0.64,0.69,1.49,0.69,2.54C114.38,709.26,114.19,710.02,113.79,710.72z"/>
	<path class="st4" d="M130.1,696.26v2.16h-4.63v14.45h-2.71v-14.45h-4.61v-2.16H130.1z"/>
	<path class="st4" d="M146.32,697.13c1.25,0.72,2.23,1.73,2.94,3.02s1.07,2.76,1.07,4.39c0,1.63-0.36,3.09-1.07,4.39
		c-0.71,1.29-1.69,2.31-2.94,3.03c-1.25,0.73-2.64,1.09-4.18,1.09c-1.55,0-2.95-0.37-4.2-1.09c-1.25-0.73-2.23-1.74-2.95-3.03
		c-0.72-1.29-1.08-2.76-1.08-4.39c0-1.63,0.36-3.09,1.08-4.39c0.72-1.29,1.71-2.3,2.95-3.02c1.25-0.72,2.65-1.08,4.2-1.08
		C143.68,696.05,145.07,696.41,146.32,697.13z M139.3,699.27c-0.83,0.49-1.48,1.18-1.94,2.09c-0.46,0.91-0.69,1.97-0.69,3.18
		c0,1.21,0.23,2.27,0.69,3.18c0.46,0.91,1.11,1.61,1.94,2.09s1.78,0.73,2.85,0.73c1.05,0,1.99-0.24,2.81-0.73
		c0.82-0.49,1.47-1.18,1.93-2.09c0.46-0.91,0.69-1.97,0.69-3.18c0-1.21-0.23-2.27-0.69-3.18c-0.46-0.91-1.11-1.61-1.93-2.09
		c-0.82-0.49-1.76-0.73-2.81-0.73C141.08,698.54,140.13,698.79,139.3,699.27z"/>
	<path class="st4" d="M158.07,706.43v6.45h-2.68v-16.61h5.65c1.91,0,3.35,0.46,4.32,1.36c0.96,0.91,1.45,2.16,1.45,3.74
		c0,1.57-0.49,2.8-1.48,3.71c-0.99,0.9-2.42,1.35-4.28,1.35H158.07z M164.07,701.37c0-0.94-0.26-1.66-0.79-2.15
		c-0.53-0.49-1.37-0.74-2.53-0.74h-2.68v5.76h2.68C162.97,704.24,164.07,703.28,164.07,701.37z"/>
	<path class="st4" d="M189.27,709.27h-7.01l-1.27,3.6h-2.87l6.12-16.35h3.08l6.09,16.35h-2.87L189.27,709.27z M188.52,707.2
		l-2.75-7.76l-2.75,7.76H188.52z"/>
	<path class="st4" d="M210.3,697.58c1.32,0.97,2.19,2.3,2.61,3.98h-2.82c-0.36-0.89-0.95-1.61-1.78-2.14
		c-0.82-0.53-1.8-0.8-2.93-0.8c-1.04,0-1.96,0.24-2.79,0.73c-0.82,0.49-1.47,1.18-1.93,2.07c-0.46,0.89-0.69,1.95-0.69,3.15
		c0,1.27,0.24,2.36,0.71,3.27c0.47,0.91,1.13,1.6,1.99,2.08c0.85,0.48,1.85,0.72,2.98,0.72c1.38,0,2.56-0.43,3.55-1.28
		c0.99-0.85,1.58-2.03,1.79-3.52h-6.09v-1.98h8.35v2.56c-0.19,1.22-0.62,2.33-1.31,3.33s-1.58,1.79-2.71,2.39
		c-1.12,0.6-2.4,0.89-3.85,0.89c-1.62,0-3.04-0.36-4.28-1.08c-1.24-0.72-2.2-1.72-2.87-3s-1.01-2.74-1.01-4.39
		c0-1.65,0.34-3.11,1.01-4.39c0.67-1.28,1.63-2.27,2.86-2.99s2.66-1.07,4.27-1.07C207.34,696.12,208.98,696.61,210.3,697.58z"/>
	<path class="st4" d="M227.03,712.87l-4.14-6.63h-1.91v6.63h-2.68v-16.61h5.86c1.9,0,3.34,0.46,4.32,1.39
		c0.98,0.93,1.47,2.15,1.47,3.67c0,1.3-0.36,2.37-1.09,3.2c-0.73,0.83-1.79,1.37-3.17,1.6l4.35,6.75H227.03z M220.98,704.33h2.96
		c2.17,0,3.25-0.96,3.25-2.87c0-0.91-0.26-1.62-0.79-2.13s-1.34-0.76-2.46-0.76h-2.96V704.33z"/>
	<path class="st4" d="M246.59,697.13c1.25,0.72,2.23,1.73,2.94,3.02s1.07,2.76,1.07,4.39c0,1.63-0.36,3.09-1.07,4.39
		c-0.71,1.29-1.69,2.31-2.94,3.03c-1.25,0.73-2.64,1.09-4.18,1.09c-1.55,0-2.95-0.37-4.2-1.09c-1.25-0.73-2.23-1.74-2.95-3.03
		c-0.72-1.29-1.08-2.76-1.08-4.39c0-1.63,0.36-3.09,1.08-4.39c0.72-1.29,1.71-2.3,2.95-3.02c1.25-0.72,2.65-1.08,4.2-1.08
		C243.95,696.05,245.35,696.41,246.59,697.13z M239.57,699.27c-0.83,0.49-1.48,1.18-1.94,2.09c-0.46,0.91-0.69,1.97-0.69,3.18
		c0,1.21,0.23,2.27,0.69,3.18c0.46,0.91,1.11,1.61,1.94,2.09s1.78,0.73,2.85,0.73c1.05,0,1.99-0.24,2.81-0.73
		c0.82-0.49,1.47-1.18,1.93-2.09c0.46-0.91,0.69-1.97,0.69-3.18c0-1.21-0.23-2.27-0.69-3.18c-0.46-0.91-1.11-1.61-1.93-2.09
		c-0.82-0.49-1.76-0.73-2.81-0.73C241.35,698.54,240.4,698.79,239.57,699.27z"/>
	<path class="st4" d="M273.85,710.72c-0.39,0.7-0.99,1.26-1.79,1.68s-1.78,0.64-2.94,0.64c-1.13,0-2.14-0.2-3.04-0.6
		c-0.89-0.4-1.61-0.96-2.14-1.68s-0.84-1.55-0.92-2.49h2.87c0.08,0.72,0.39,1.34,0.93,1.86s1.27,0.78,2.18,0.78
		c0.82,0,1.45-0.22,1.89-0.66c0.45-0.44,0.67-1,0.67-1.69c0-0.6-0.17-1.09-0.49-1.47c-0.33-0.38-0.74-0.69-1.22-0.91
		s-1.15-0.47-2-0.75c-1.04-0.33-1.88-0.66-2.53-0.99c-0.65-0.33-1.2-0.81-1.66-1.44c-0.46-0.63-0.68-1.45-0.68-2.47
		c0-0.89,0.22-1.68,0.66-2.35c0.44-0.67,1.07-1.2,1.88-1.56c0.82-0.37,1.76-0.55,2.82-0.55c1.69,0,3.04,0.41,4.04,1.22
		s1.56,1.88,1.71,3.2h-2.89c-0.11-0.63-0.4-1.16-0.88-1.61s-1.13-0.67-1.96-0.67c-0.75,0-1.36,0.19-1.81,0.58
		c-0.46,0.38-0.68,0.94-0.68,1.66c0,0.56,0.16,1.03,0.47,1.4s0.71,0.66,1.19,0.87s1.13,0.46,1.96,0.74c1.05,0.33,1.91,0.66,2.58,1
		c0.67,0.34,1.23,0.83,1.69,1.47c0.46,0.64,0.69,1.49,0.69,2.54C274.44,709.26,274.24,710.02,273.85,710.72z"/>
	<path class="st4" d="M290.15,696.26v2.16h-4.63v14.45h-2.71v-14.45h-4.61v-2.16H290.15z"/>
	<path class="st4" d="M306.38,697.13c1.25,0.72,2.23,1.73,2.94,3.02s1.07,2.76,1.07,4.39c0,1.63-0.36,3.09-1.07,4.39
		c-0.71,1.29-1.69,2.31-2.94,3.03c-1.25,0.73-2.64,1.09-4.18,1.09c-1.55,0-2.95-0.37-4.2-1.09c-1.25-0.73-2.23-1.74-2.95-3.03
		c-0.72-1.29-1.08-2.76-1.08-4.39c0-1.63,0.36-3.09,1.08-4.39c0.72-1.29,1.71-2.3,2.95-3.02c1.25-0.72,2.65-1.08,4.2-1.08
		C303.74,696.05,305.13,696.41,306.38,697.13z M299.35,699.27c-0.83,0.49-1.48,1.18-1.94,2.09c-0.46,0.91-0.69,1.97-0.69,3.18
		c0,1.21,0.23,2.27,0.69,3.18c0.46,0.91,1.11,1.61,1.94,2.09s1.78,0.73,2.85,0.73c1.05,0,1.99-0.24,2.81-0.73
		c0.82-0.49,1.47-1.18,1.93-2.09c0.46-0.91,0.69-1.97,0.69-3.18c0-1.21-0.23-2.27-0.69-3.18c-0.46-0.91-1.11-1.61-1.93-2.09
		c-0.82-0.49-1.76-0.73-2.81-0.73C301.13,698.54,300.18,698.79,299.35,699.27z"/>
	<path class="st4" d="M324.18,712.87l-4.14-6.63h-1.91v6.63h-2.68v-16.61h5.86c1.9,0,3.34,0.46,4.32,1.39
		c0.98,0.93,1.47,2.15,1.47,3.67c0,1.3-0.36,2.37-1.09,3.2c-0.73,0.83-1.79,1.37-3.17,1.6l4.35,6.75H324.18z M318.13,704.33h2.96
		c2.17,0,3.25-0.96,3.25-2.87c0-0.91-0.26-1.62-0.79-2.13c-0.53-0.51-1.34-0.76-2.46-0.76h-2.96V704.33z"/>
	<path class="st4" d="M334.55,698.43v5.04h6.12v2.07h-6.12v5.15h6.82v2.19h-9.51v-16.61h9.51v2.16H334.55z"/>
</g>
<g>
	<path class="st1" d="M-71.89,982.57c0-20.52,15.98-35.72,37.79-35.72c21.71,0,37.79,15.1,37.79,35.72
		c0,20.62-16.08,35.72-37.79,35.72C-55.9,1018.29-71.89,1003.09-71.89,982.57z M-12.49,982.57c0-13.12-9.27-22.1-21.61-22.1
		c-12.33,0-21.61,8.98-21.61,22.1s9.27,22.1,21.61,22.1C-21.77,1004.67-12.49,995.69-12.49,982.57z"/>
	<path class="st1" d="M68.9,986.72v30.39H53.51v-28.02c0-8.58-3.95-12.53-10.75-12.53c-7.4,0-12.73,4.54-12.73,14.31v26.24H14.63
		v-53.08h14.7v6.22c4.14-4.54,10.36-7,17.56-7C59.43,963.23,68.9,970.53,68.9,986.72z"/>
	<path class="st1" d="M82.81,943.9H98.2v73.21H82.81V943.9z"/>
	<path class="st1" d="M112.5,964.02h15.39v53.08H112.5V964.02z"/>
	<path class="st1" d="M196.46,986.72v30.39h-15.39v-28.02c0-8.58-3.95-12.53-10.75-12.53c-7.4,0-12.73,4.54-12.73,14.31v26.24H142.2
		v-53.08h14.7v6.22c4.14-4.54,10.36-7,17.56-7C186.99,963.23,196.46,970.53,196.46,986.72z"/>
	<path class="st1" d="M262.66,994.9H222.5c1.48,6.61,7.1,10.66,15.19,10.66c5.62,0,9.67-1.68,13.32-5.13l8.19,8.88
		c-4.93,5.62-12.33,8.58-21.9,8.58c-18.35,0-30.29-11.54-30.29-27.33c0-15.88,12.14-27.33,28.32-27.33
		c15.59,0,27.63,10.46,27.63,27.53C262.96,991.94,262.76,993.62,262.66,994.9z M222.31,985.93h26.15
		c-1.08-6.71-6.12-11.05-13.02-11.05C228.42,974.88,223.39,979.12,222.31,985.93z"/>
</g>
<g>
	<path class="st2" d="M307.03,1006.12h-23.17l-4.42,10.7H267.6l22.25-49.91h11.41l22.32,49.91h-12.12L307.03,1006.12z
		 M303.39,997.34l-7.92-19.11l-7.92,19.11H303.39z"/>
	<path class="st2" d="M367.21,978.45v31.94c0,14.26-7.7,20.82-21.53,20.82c-7.27,0-14.33-1.78-18.82-5.28l4.42-7.99
		c3.28,2.64,8.63,4.35,13.55,4.35c7.84,0,11.27-3.57,11.27-10.48v-1.64c-2.92,3.21-7.13,4.78-12.12,4.78
		c-10.63,0-19.18-7.34-19.18-18.54c0-11.2,8.56-18.54,19.18-18.54c5.35,0,9.77,1.78,12.69,5.49v-4.92H367.21z M356.22,996.42
		c0-5.63-4.21-9.41-10.05-9.41s-10.13,3.78-10.13,9.41c0,5.63,4.28,9.41,10.13,9.41S356.22,1002.05,356.22,996.42z"/>
	<path class="st2" d="M401.36,977.88v10.27c-0.93-0.07-1.64-0.14-2.5-0.14c-6.13,0-10.2,3.35-10.2,10.7v18.11h-11.12v-38.36h10.62
		v5.06C390.88,979.8,395.44,977.88,401.36,977.88z"/>
	<path class="st2" d="M404.78,997.63c0-11.55,8.91-19.75,21.11-19.75s21.04,8.2,21.04,19.75c0,11.55-8.84,19.75-21.04,19.75
		S404.78,1009.18,404.78,997.63z M435.66,997.63c0-6.63-4.21-10.63-9.77-10.63s-9.84,3.99-9.84,10.63c0,6.63,4.28,10.62,9.84,10.62
		S435.66,1004.26,435.66,997.63z"/>
</g>
<g>
	<path class="st3" d="M448.63,1010.88c0-2.31,1.71-3.82,3.86-3.82c2.15,0,3.87,1.51,3.87,3.82c0,2.27-1.71,3.9-3.87,3.9
		C450.35,1014.79,448.63,1013.15,448.63,1010.88z"/>
	<path class="st3" d="M458.71,1003.75c0-6.45,4.98-11.04,11.95-11.04c4.5,0,8.05,1.95,9.6,5.46l-4.82,2.59
		c-1.16-2.03-2.87-2.95-4.82-2.95c-3.15,0-5.62,2.19-5.62,5.94s2.47,5.94,5.62,5.94c1.95,0,3.67-0.88,4.82-2.95l4.82,2.63
		c-1.55,3.43-5.1,5.42-9.6,5.42C463.69,1014.79,458.71,1010.21,458.71,1003.75z"/>
	<path class="st3" d="M481.98,1003.75c0-6.45,4.98-11.04,11.79-11.04c6.81,0,11.75,4.58,11.75,11.04s-4.94,11.04-11.75,11.04
		C486.96,1014.79,481.98,1010.21,481.98,1003.75z M499.23,1003.75c0-3.71-2.35-5.94-5.46-5.94c-3.11,0-5.5,2.23-5.5,5.94
		s2.39,5.94,5.5,5.94C496.88,1009.69,499.23,1007.46,499.23,1003.75z"/>
	<path class="st3" d="M545.89,1002.2v12.27h-6.22v-11.31c0-3.47-1.55-5.06-4.06-5.06c-2.79,0-4.74,1.79-4.74,5.62v10.76h-6.21
		v-11.31c0-3.47-1.47-5.06-4.06-5.06c-2.75,0-4.7,1.79-4.7,5.62v10.76h-6.22v-21.43h5.94v2.47c1.59-1.83,3.98-2.79,6.73-2.79
		c2.99,0,5.54,1.16,7.05,3.51c1.71-2.19,4.5-3.51,7.73-3.51C542.22,992.72,545.89,995.66,545.89,1002.2z"/>
</g>
<g>
	<path class="st6" d="M-71.89,1128.57c0-20.52,15.98-35.72,37.79-35.72c21.71,0,37.79,15.1,37.79,35.72
		c0,20.62-16.08,35.72-37.79,35.72C-55.9,1164.29-71.89,1149.09-71.89,1128.57z M-12.49,1128.57c0-13.12-9.27-22.1-21.61-22.1
		c-12.33,0-21.61,8.98-21.61,22.1s9.27,22.1,21.61,22.1C-21.77,1150.67-12.49,1141.69-12.49,1128.57z"/>
	<path class="st6" d="M68.9,1132.71v30.39H53.51v-28.02c0-8.58-3.95-12.53-10.75-12.53c-7.4,0-12.73,4.54-12.73,14.31v26.24H14.63
		v-53.08h14.7v6.22c4.14-4.54,10.36-7,17.56-7C59.43,1109.23,68.9,1116.53,68.9,1132.71z"/>
	<path class="st6" d="M82.81,1089.9H98.2v73.21H82.81V1089.9z"/>
	<path class="st6" d="M112.5,1110.02h15.39v53.08H112.5V1110.02z"/>
	<path class="st6" d="M196.46,1132.71v30.39h-15.39v-28.02c0-8.58-3.95-12.53-10.75-12.53c-7.4,0-12.73,4.54-12.73,14.31v26.24
		H142.2v-53.08h14.7v6.22c4.14-4.54,10.36-7,17.56-7C186.99,1109.23,196.46,1116.53,196.46,1132.71z"/>
	<path class="st6" d="M262.66,1140.9H222.5c1.48,6.61,7.1,10.66,15.19,10.66c5.62,0,9.67-1.68,13.32-5.13l8.19,8.88
		c-4.93,5.62-12.33,8.58-21.9,8.58c-18.35,0-30.29-11.54-30.29-27.33c0-15.88,12.14-27.33,28.32-27.33
		c15.59,0,27.63,10.46,27.63,27.53C262.96,1137.94,262.76,1139.62,262.66,1140.9z M222.31,1131.93h26.15
		c-1.08-6.71-6.12-11.05-13.02-11.05C228.42,1120.88,223.39,1125.12,222.31,1131.93z"/>
</g>
<g>
	<path class="st2" d="M307.03,1152.12h-23.17l-4.42,10.7H267.6l22.25-49.91h11.41l22.32,49.91h-12.12L307.03,1152.12z
		 M303.39,1143.34l-7.92-19.11l-7.92,19.11H303.39z"/>
	<path class="st2" d="M367.21,1124.45v31.94c0,14.26-7.7,20.82-21.53,20.82c-7.27,0-14.33-1.78-18.82-5.28l4.42-7.99
		c3.28,2.64,8.63,4.35,13.55,4.35c7.84,0,11.27-3.57,11.27-10.48v-1.64c-2.92,3.21-7.13,4.78-12.12,4.78
		c-10.63,0-19.18-7.34-19.18-18.54c0-11.2,8.56-18.54,19.18-18.54c5.35,0,9.77,1.78,12.69,5.49v-4.92H367.21z M356.22,1142.42
		c0-5.63-4.21-9.41-10.05-9.41s-10.13,3.78-10.13,9.41c0,5.63,4.28,9.41,10.13,9.41S356.22,1148.05,356.22,1142.42z"/>
	<path class="st2" d="M401.36,1123.88v10.27c-0.93-0.07-1.64-0.14-2.5-0.14c-6.13,0-10.2,3.35-10.2,10.7v18.11h-11.12v-38.36h10.62
		v5.06C390.88,1125.8,395.44,1123.88,401.36,1123.88z"/>
	<path class="st2" d="M404.78,1143.63c0-11.55,8.91-19.75,21.11-19.75s21.04,8.2,21.04,19.75c0,11.55-8.84,19.75-21.04,19.75
		S404.78,1155.18,404.78,1143.63z M435.66,1143.63c0-6.63-4.21-10.63-9.77-10.63s-9.84,3.99-9.84,10.63
		c0,6.63,4.28,10.62,9.84,10.62S435.66,1150.26,435.66,1143.63z"/>
</g>
<g>
	<path class="st3" d="M448.63,1156.88c0-2.31,1.71-3.82,3.86-3.82c2.15,0,3.87,1.51,3.87,3.82c0,2.27-1.71,3.9-3.87,3.9
		C450.35,1160.79,448.63,1159.15,448.63,1156.88z"/>
	<path class="st3" d="M458.71,1149.75c0-6.45,4.98-11.04,11.95-11.04c4.5,0,8.05,1.95,9.6,5.46l-4.82,2.59
		c-1.16-2.03-2.87-2.95-4.82-2.95c-3.15,0-5.62,2.19-5.62,5.94s2.47,5.94,5.62,5.94c1.95,0,3.67-0.88,4.82-2.95l4.82,2.63
		c-1.55,3.43-5.1,5.42-9.6,5.42C463.69,1160.79,458.71,1156.21,458.71,1149.75z"/>
	<path class="st3" d="M481.98,1149.75c0-6.45,4.98-11.04,11.79-11.04c6.81,0,11.75,4.58,11.75,11.04s-4.94,11.04-11.75,11.04
		C486.96,1160.79,481.98,1156.21,481.98,1149.75z M499.23,1149.75c0-3.71-2.35-5.94-5.46-5.94c-3.11,0-5.5,2.23-5.5,5.94
		s2.39,5.94,5.5,5.94C496.88,1155.69,499.23,1153.46,499.23,1149.75z"/>
	<path class="st3" d="M545.89,1148.2v12.27h-6.22v-11.31c0-3.47-1.55-5.06-4.06-5.06c-2.79,0-4.74,1.79-4.74,5.62v10.76h-6.21
		v-11.31c0-3.47-1.47-5.06-4.06-5.06c-2.75,0-4.7,1.79-4.7,5.62v10.76h-6.22v-21.43h5.94v2.47c1.59-1.83,3.98-2.79,6.73-2.79
		c2.99,0,5.54,1.16,7.05,3.51c1.71-2.19,4.5-3.51,7.73-3.51C542.22,1138.72,545.89,1141.66,545.89,1148.2z"/>
</g>
<g>
</g>
<g>
</g>
<g>
</g>
<g>
</g>
<g>
</g>
<g>
</g>
<g>
</g>
<g>
</g>
<g>
</g>
<g>
</g>
<g>
</g>
<g>
</g>
<g>
</g>
<g>
</g>
<g>
</g>
</svg>
